 
<svg version="1.1" id="logofill" xmlns="http://www.w3.org/2000/svg" xmlns:xlink="http://www.w3.org/1999/xlink" x="0px" y="0px"
	 width="464px" height="510px" viewBox="0 0 464 510" enable-background="new 0 0 464 510" xml:space="preserve">

<defs>
      <linearGradient id="lg" x1="0.5" y1="1" x2="0.5" y2="0">
          <stop offset="0%" stop-opacity="1" stop-color="yellow"/>
          <stop offset="40%" stop-opacity="1" stop-color="yellow">
            <animate attributeName="offset" values="0;1;0" repeatCount="indefinite" dur="10s" begin="0s"/>
          </stop>
          <stop offset="40%" stop-opacity="0" stop-color="yellow">
            <animate attributeName="offset" values="0;1;0" repeatCount="indefinite" dur="10s"  begin="0s"/>
          </stop>
          <stop offset="100%" stop-opacity="0" stop-color="yellow"/>
      </linearGradient>
    <style>

    </style>
</defs>

<g>
	<path  stroke="#000000" stroke-width="2" fill="url(#lg)" stroke-miterlimit="10" d="M280.296,13.768
		c46.57,54.43,69.539,128.369,56.599,204.511C313.763,354.398,184.663,445.992,48.544,422.86
		c-12.716-2.161-25.042-5.249-36.923-9.178c36.683,42.874,88.007,73.647,147.984,83.84
		c136.119,23.132,265.218-68.462,288.351-204.582C468.928,169.537,395.604,51.904,280.296,13.768z"/>
</g>
<g id="Layer_2">
	<g>
		<path fill="#FFFFFF" d="M326,263c5.25,0,10.75,11.75,12,16.25c0.5,3,0.25,6.5,0.25,9.25c0,1-0.25,2.5,0,3.5
			c0.5,1.75,2.5,2.75,2.5,4.75c0,2.5-4.25,6.5-5,9.25c-0.75,3-0.25,6.25-1.25,9.25c-0.75,2-3.25,7.75-5.25,9
			c-1.75,1.25-5.5,1.5-7.75,1.75c-4.75,0.75-9.75,4.25-14,3.25c-4.5-1-8.5-5-12.75-5.5"/>
		<g>
			<path fill="#999999" d="M326,264.5c3.901,0.424,6.44,5.909,8.023,8.933c2.102,4.012,2.819,7.595,2.772,12.113
				c-0.033,3.247-0.76,6.316,1.255,9.063c2.725,3.715-2.066,6.623-3.378,10.032c-1.549,4.027-0.769,8.402-2.555,12.441
				c-0.658,1.488-1.439,2.906-2.289,4.293c-1.732,2.826-5.397,2.816-8.329,3.124c-4.424,0.465-8.204,3.239-12.703,3.422
				c-4.615,0.188-9.057-4.719-13.648-5.618c-1.89-0.37-2.694,2.521-0.797,2.893c5.208,1.021,9.098,5.016,14.445,5.726
				c2.419,0.321,5.154-0.915,7.346-1.72c2.809-1.03,5.417-1.605,8.377-2.043c4.729-0.698,6.847-2.238,9.119-6.371
				c0.903-1.641,1.627-3.396,2.308-5.14c1.378-3.526,0.167-7.478,2.032-10.88c1.434-2.614,5.762-6.456,3.854-9.87
				c-1.365-2.444-2.229-3.446-2.083-6.398c0.146-2.966,0.562-6.773-0.304-9.648c-1.845-6.128-6.082-16.551-13.446-17.352
				C324.078,261.291,324.098,264.293,326,264.5L326,264.5z"/>
		</g>
	</g>
	<g>
		<path fill="#FFFFFF" d="M347,270.75c2.25,0.75,5,0,6.5,2.25c1.25,1.75,0.5,6,0.5,8c0,3-0.5,10.75-5.5,9
			c-4-1.5-6.25-19.75-1.75-19.25"/>
		<g>
			<path fill="#999999" d="M346.602,272.196c2.7,0.662,5.972,0.268,6.121,4.201c0.065,1.711-0.211,3.432-0.228,5.145
				c-0.017,1.613-1.358,10.38-4.213,6.263c-1.054-1.519-4.475-15.556-1.532-15.555c1.935,0.001,1.935-2.999,0-3
				c-7.524-0.003-3.814,19.681,0.993,22.045c5.507,2.71,7.391-4.661,7.696-8.465c0.249-3.092,0.67-6.546-0.146-9.56
				c-0.96-3.543-5.121-3.287-7.895-3.967C345.52,268.843,344.723,271.736,346.602,272.196L346.602,272.196z"/>
		</g>
	</g>
	<g>
		<path fill="#FFFFFF" d="M448.5,232.5c-4-0.5-6.75-2.75-10.25-4c-5.5-1.75-8.75,1.75-12.75,4.25c-3.25,2-9,3.75-13,3.5
			c-3.5-0.25-6-2.5-9.25-0.75c-3.25,1.5-5.25,6.25-6,9.25c-0.75,3.5-2.5,7.75-2.5,11c0.25,4.75,3.75,6.75,8,8
			c1.75,0.5,3.75,1,5.5,0.75c3-0.25,2.25-1,4.25-2.5c5.5-3.75,6.5-8,2.25-13.5c4-1.5,5.5-3.5,9-5.75c2.75-1.75,4.25-4.25,7-5.75
			c3.75-1.75,17.5,4.5,18-3.25"/>
		<g>
			<path fill="#999999" d="M448.898,231.054c-4.955-0.945-10.155-5.755-15.471-4.326c-5.783,1.554-10.001,6.018-15.959,7.528
				c-5.685,1.441-10.755-2.548-16.013,0.563c-4.175,2.47-5.293,8.456-6.476,12.676c-1.196,4.267-3.305,10.09,0.409,13.824
				c3.24,3.259,8.317,4.879,12.86,4.682c3.341-0.145,7.034-3.56,8.814-6.161c2.855-4.17,1.751-8.175-1.02-12.096
				c-0.179,0.684-0.358,1.368-0.538,2.052c4.233-1.809,8.278-4.884,11.729-7.92c1.902-1.672,3.374-3.735,6.114-3.686
				c1.743,0.032,3.492,0.401,5.215,0.644c4.474,0.632,10.793,1.108,11.631-4.685c0.273-1.892-2.616-2.707-2.893-0.798
				c-0.807,5.578-11.574,1.641-15.421,1.865c-2.318,0.135-4.11,2.012-5.693,3.504c-3.481,3.282-7.769,6.592-12.196,8.484
				c-0.709,0.303-0.969,1.443-0.538,2.052c3.55,5.024,2.391,7.894-2.016,11.683c-1.667,1.434-2.088,2.013-4.541,2.119
				c-2.177,0.095-5.016-1.075-6.946-1.985c-5.434-2.561-3.36-8.38-2.079-12.782c1.262-4.334,2.289-11.34,8.02-11.952
				c2.903-0.31,6.064,1.552,9.184,1.334c3.022-0.211,6.242-1.158,8.965-2.473c3.746-1.81,6.869-5.221,11.155-5.671
				c4.013-0.421,8.845,3.643,12.905,4.417C449.991,234.307,450.798,231.416,448.898,231.054L448.898,231.054z"/>
		</g>
	</g>
	<g>
		<path fill="#FFFFFF" d="M363,177.25c7.75-1.25,16-0.5,23.75-0.25c8,0.5,9.25,0.25,13.75,6.5c1.75,2.5,6,5,7.5,7.75
			c2,4.5-2,10.5-3.75,14.25c-2.5,4.25-4,8.5-8,11.5c-4.5,3.5-4.5,2-9,0c-4-2-7.5-0.75-10.75-4.25c-1.5-1.75-5.25-9.5-7.5-5.25
			c-3.5-3.5-3.75-9.5-7.75-13.25c-2-1.75-8.25-5.25-9.25-7.25c-0.75-2.25,1-2.75,2-4c1-1,2.5,0,3-1.5c0.25-0.75-1-1.75-1.25-2.5
			c0-1.5-1.75-2.25-0.5-3.75c1-1,5.75,0,6.75,0.75"/>
		<g>
			<path fill="#999999" d="M363.398,178.696c5.958-0.842,11.926-0.672,17.919-0.418c4.168,0.177,9.668-0.421,13.548,1.439
				c3.308,1.586,5.626,6.193,8.418,8.625c3.035,2.644,4.239,5.254,3.054,9.224c-0.748,2.503-2.237,4.84-3.382,7.178
				c-1.7,3.471-6.243,13.596-11.183,12.786c-1.777-0.292-3.891-1.878-5.601-2.588c-3.003-1.247-6.462-0.446-8.761-3.45
				c-2.208-2.884-5.976-10.067-9.706-4.748c0.785-0.102,1.57-0.203,2.355-0.304c-3.1-3.571-3.522-8.721-6.747-12.175
				c-2.669-2.86-6.302-4.547-9.244-7.104c-2.579-2.243,4.431-3.205,4.431-5.66c0-1.548-1.191-2.455-1.558-3.907
				c-0.57-2.265,3.342-0.814,4.301-0.298c1.703,0.917,3.218-1.673,1.514-2.591c-2.72-1.464-7.716-2.648-9.251,0.796
				c-0.531,1.191,0.354,3.267,0.949,4.256c0.943,1.566,0.889,0.808-0.392,1.502c-1,0.543-1.631,1.218-2.477,1.98
				c-3.54,3.19,0.902,6.611,3.382,8.408c3.396,2.462,6.254,4.188,8.198,8.115c1.528,3.085,2.475,6.151,4.772,8.798
				c0.679,0.782,1.838,0.434,2.355-0.304c0.848-1.208,4.096,4.118,4.525,4.748c0.892,1.308,2.285,2.479,3.77,3.051
				c3.077,1.187,6.228,1.44,9.249,2.881c1.182,0.564,2.866,1.839,4.288,1.662c4.153-0.519,7.344-4.209,9.577-7.473
				c3.239-4.732,6.295-10.645,7.94-16.153c1.404-4.7-0.904-7.779-4.24-10.752c-3.167-2.822-5.391-6.852-9.024-9.094
				c-3.125-1.928-7.958-1.566-11.427-1.692c-7.496-0.273-14.895-0.686-22.352,0.369
				C360.692,176.074,361.508,178.964,363.398,178.696L363.398,178.696z"/>
		</g>
	</g>
	<g>
		<path fill="#FFFFFF" d="M288.5,373c1,9-8.5,10,0,16c11.5,8.5,10-4.5,16.5-9c-2-2-5.5-2-7-4c-1-2,1-5.5,0-7c-2-3.5,0-4.5-4.5-2
			c-2.5,1-4,2.5-4.5,5"/>
		<g>
			<path fill="#999999" d="M287,373c0.17,2.615-0.419,4.673-1.737,6.912c-0.732,1.245-1.724,2.591-1.799,4.095
				c-0.196,3.973,4.369,6.605,7.36,8.224c8.844,4.783,9.881-7.072,14.933-10.936c0.684-0.522,1.14-1.69,0.304-2.355
				c-1.21-0.963-2.358-1.577-3.784-2.17c-3.38-1.404-2.514-3.203-2.514-6.076c0-1.726-0.757-4.746-2.015-6.004
				c-1.444-1.444-3.703,0.294-5.005,1.016c-2.671,1.48-4.354,2.831-5.189,5.896c-0.509,1.869,2.385,2.662,2.893,0.797
				c0.823-3.022,3.278-3.854,5.814-5.191c-0.737,0.389-0.825-0.421-0.197,1.218c0.75,1.958,0.494,3.278,0.228,5.177
				c-0.717,5.111,4.613,5.046,7.648,7.459c0.102-0.785,0.202-1.57,0.304-2.355c-2.152,1.646-3.536,3.694-4.795,6.073
				c-1.263,2.384-2.44,6.104-5.785,5.372c-2.152-0.471-4.321-2.286-5.931-3.672c-1.749-1.506-1.268-2.746-0.245-4.451
				c1.738-2.898,2.735-5.594,2.513-9.027C289.875,371.079,286.875,371.067,287,373L287,373z"/>
		</g>
	</g>
	<g>
		<path fill="#FFFFFF" d="M369.5,331c4.5,0.5,8,7.5,11.5,6.5c3.5-1.5,5.5-10.5,3-13c-5-5.5-20-4-19,5c1,0.5,1.5,1,2.5,1.5"/>
		<g>
			<path fill="#999999" d="M369.102,332.446c4.77,0.93,9.319,10.209,14.423,4.98c3.478-3.563,4.652-11.432,0.586-14.861
				c-3.887-3.279-10.531-3.582-15.052-1.593c-2.144,0.943-4.172,2.464-5.029,4.729c-1.346,3.55-0.329,4.845,2.714,6.593
				c1.681,0.966,3.19-1.627,1.514-2.59c-1.813-1.042-2.254-1.339-1.196-3.418c0.853-1.676,2.828-2.517,4.514-3.029
				c3.493-1.063,8.07-0.549,10.913,1.849c2.408,2.032,0.447,12.396-3.214,10.664c-3.516-1.662-5.293-5.422-9.375-6.217
				C368.009,329.186,367.203,332.076,369.102,332.446L369.102,332.446z"/>
		</g>
	</g>
	<g>
		<path fill="#FFFFFF" d="M218.5,437.5c-7-1.5-26,8.5-30,15c-3.5,6.5,0,9.5,3,13.5c3.5,4.5,7,8,9,12.5c3,7,4,13.5,14.5,12.5
			c9-1,8.5-8,12.5-14c3.5-5,10.5-7,13-12.5c5.5-13-12.5-20-19-27"/>
		<g>
			<path fill="#999999" d="M218.898,436.054c-6.11-0.961-12.549,2.24-17.836,4.938c-5.113,2.608-12.805,6.767-14.742,12.665
				c-2.837,8.639,5.859,15.082,10.44,21.36c3.71,5.084,4.402,14.544,11.315,16.789c6.635,2.154,13.503,0.144,16.823-6.07
				c2.026-3.793,3.028-7.512,6.314-10.54c2.943-2.712,6.913-4.416,9.258-7.776c9.916-14.209-10.057-22.926-17.911-30.979
				c-1.353-1.387-3.472,0.736-2.121,2.121c6.631,6.8,22.335,12.646,19.039,24.409c-1.759,6.278-9.986,7.99-13.273,13.273
				c-3.747,6.02-4.242,12.831-12.786,13.354c-7.853,0.479-8.902-6.315-11.624-11.854c-3.346-6.81-10.854-11.826-13.12-19.015
				c-2.087-6.62,8.425-12.116,12.799-14.558c4.541-2.534,11.193-6.079,16.628-5.225
				C219.993,439.244,220.806,436.354,218.898,436.054L218.898,436.054z"/>
		</g>
	</g>
	<g>
		<path fill="#FFFFFF" d="M350.5,381c-15-1.5-25.5-3-27,14.5c-1,9-2.5,16.5-7.5,24c-1.5,2.5-4,3-5.5,6c0,0.5-1,8-1.5,9
			c-1,6-2,10,4.5,13.5c4,2,8.5,1,12.5,2.5c4.5,1.5,10.125,4,13.625,6.5l27.875-21.563l19-19.938c-0.5-7-1.5-9-7-13
			c-5.5-4.5-4.5-2.5-6.5-9c-2-6,0-6.5-6-9c-4-1.5-11-3.5-15.5-3.5"/>
		<g>
			<path fill="#999999" d="M350.5,379.5c-7.807-0.785-17.968-2.795-24.119,3.479c-3.174,3.237-3.937,8.23-4.381,12.521
				c-0.86,8.309-2.764,16.139-7.295,23.243c-1.482,2.322-4.871,3.521-5.651,6.358c-0.463,1.683-0.453,3.612-0.724,5.341
				c-0.637,4.078-1.918,7.969-1.339,12.144c0.691,4.986,6.5,7.457,10.769,8.135c7.753,1.231,14.482,3.105,21.108,7.574
				c0.605,0.409,1.303,0.164,1.817-0.234c7.48-5.786,14.961-11.572,22.44-17.358c6.307-4.878,11.439-10.505,16.956-16.294
				c2.377-2.494,5.957-5.152,7.713-8.151c1.015-1.731-0.434-6.618-1.233-8.31c-1.562-3.306-4.383-5.209-7.159-7.438
				c-2.489-1.999-3.598-2.933-4.543-6.053c-0.791-2.606-1.017-5.969-2.509-8.29c-1.471-2.288-4.998-3.157-7.398-3.966
				c-4.327-1.459-8.879-2.531-13.452-2.701c-1.936-0.072-1.929,2.929,0,3c4.34,0.161,8.533,1.297,12.655,2.594
				c4.203,1.322,5.806,2.241,6.716,6.399c1.327,6.069,2.912,8.329,7.568,12.067c3.242,2.604,9.278,8.487,5.593,12.355
				c-3.592,3.769-7.183,7.537-10.774,11.306c-10.414,10.928-22.761,19.487-34.693,28.718c0.605-0.078,1.212-0.156,1.817-0.234
				c-4.304-2.903-9.093-4.955-13.983-6.651c-5.813-2.017-16.326-0.067-16.628-8.822c-0.125-3.621,1.235-7.46,1.764-11.038
				c0.32-2.171,0.214-3.25,1.786-4.966c1.769-1.931,3.425-3.108,4.872-5.377c2.876-4.51,4.495-9.716,5.578-14.908
				c1.171-5.61,0.788-11.727,3.41-16.935c3.997-7.939,16.344-5.209,23.319-4.508C352.425,382.693,352.406,379.691,350.5,379.5
				L350.5,379.5z"/>
		</g>
	</g>
	<g>
		<path fill="#FFFFFF" d="M441.128,314.466c-4.5-5.25-9.378-13.466-15.628-5.716c-3.5,4.5-4,9.5-10.25,5
			c-1.25,3-0.25,7.5-1.75,10.75c-1,2-3.75,3.25-4.75,5.25c-1.5,3,0,2.25,0.75,4.75c1,4.5-1.75,7-2,11c-0.25,6.75,3.75,7.25,9,8.25
			c-0.25,2.5-3,5-2.5,7.5c0.5,2.75,5.25,5,7.5,5.5l10.375-24.625L441.128,314.466z"/>
		<g>
			<path fill="#999999" d="M442.188,313.405c-3.174-3.796-6.614-9.546-12.243-9.271c-2.277,0.112-4.097,2.006-5.506,3.555
				c-2.635,2.896-3.362,8.063-8.433,4.766c-0.84-0.547-1.926,0.01-2.203,0.896c-0.591,1.888-0.732,3.71-0.835,5.68
				c-0.218,4.195-1.962,5.905-4.649,8.714c-3.606,3.768,0.45,6.575-0.394,10.76c-0.913,4.528-2.979,7.831-0.832,12.404
				c1.488,3.171,6.05,3.728,9.008,4.287c-0.35-0.615-0.699-1.229-1.048-1.845c-0.678,2.76-4.061,6.555-2.034,9.552
				c1.888,2.793,4.878,4.41,8.082,5.293c0.865,0.239,1.527-0.295,1.845-1.048c3.436-8.152,7.584-16.281,10.39-24.667
				c3.079-9.206,6.159-18.411,9.238-27.617c0.615-1.84-2.282-2.622-2.893-0.797c-3.066,9.164-6.132,18.328-9.197,27.492
				c-2.82,8.43-6.979,16.597-10.431,24.792c0.615-0.35,1.229-0.699,1.845-1.048c-1.916-0.528-3.6-1.35-5.171-2.577
				c-2.477-1.936,0.679-6.377,1.219-8.578c0.183-0.743-0.228-1.689-1.048-1.845c-5.369-1.017-9.154-2.636-7.394-9.179
				c0.942-3.502,2.531-6.4,1.021-10.035c-1.487-3.58,2.442-5.092,4.269-7.833c2.004-3.005,0.865-7.799,1.901-11.108
				c-0.734,0.299-1.469,0.598-2.203,0.896c3.252,2.115,6.62,2.952,9.097-0.692c2.172-3.195,4.826-9.149,9.623-6.324
				c2.775,1.634,4.827,5.074,6.854,7.498C441.31,317.013,443.421,314.878,442.188,313.405z"/>
		</g>
	</g>
	<path fill="#FFFFFF" stroke="#999999" stroke-miterlimit="10" d="M456,451"/>
</g>
</svg>
